<?xml version="1.0" standalone="no"?>
<!DOCTYPE svg PUBLIC "-//W3C//DTD SVG 1.1//EN" "http://www.w3.org/Graphics/SVG/1.1/DTD/svg11.dtd" >
<svg xmlns="http://www.w3.org/2000/svg" xmlns:xlink="http://www.w3.org/1999/xlink" version="1.1">
<metadata></metadata>
<defs>
<font id="robotoregularregular" horiz-adv-x="1160" >
<font-face units-per-em="2048" ascent="1536" descent="-512" />
<missing-glyph horiz-adv-x="507" />
<glyph unicode="&#xfb01;" horiz-adv-x="1134" d="M202 0v941h-171v141h171v119q0 185 103 282.5t293 97.5q68 0 133 -15.5t150 -45.5l-31 -154q-55 22 -113.5 36.5t-124.5 14.5q-120 0 -172 -52t-52 -164v-119h221v-141h-221v-941h-186zM973 0h-186v1082h186v-1082z" />
<glyph horiz-adv-x="0" />
<glyph unicode="&#xd;" horiz-adv-x="507" />
<glyph horiz-adv-x="0" />
<glyph unicode="&#x9;" horiz-adv-x="0" />
<glyph unicode=" "  horiz-adv-x="507" />
<glyph unicode="&#x09;" horiz-adv-x="507" />
<glyph unicode="&#xa0;" horiz-adv-x="507" />
<glyph unicode="!" horiz-adv-x="527" d="M356 478h-185v978h185v-978zM358 0h-189v200h189v-200z" />
<glyph unicode="&#x22;" horiz-adv-x="655" d="M543 1421l-47 -377h-94l1 375v141h140v-139zM245 1421l-47 -377h-93v516h140v-139z" />
<glyph unicode="#" horiz-adv-x="1275" d="M716 410h-264l-80 -410h-143l80 410h-239v135h265l70 358h-259v137h286l81 416h143l-81 -416h264l81 416h144l-81 -416h203v-137h-230l-70 -358h225v-135h-251l-80 -410h-144zM478 545h264l70 358h-264z" />
<glyph unicode="$" horiz-adv-x="1150" d="M856 374q0 93 -63.5 156.5t-218.5 115.5q-207 63 -307.5 162t-100.5 272q0 168 94 270t264 123v218h149v-219q172 -24 263.5 -140.5t91.5 -322.5h-184q0 140 -64 224t-184 84q-124 0 -184.5 -62t-60.5 -172q0 -101 60.5 -160.5t226.5 -115.5q209 -68 306 -163.5 t97 -267.5q0 -175 -101.5 -275t-284.5 -118v-191h-148v191q-176 17 -286.5 122.5t-110.5 322.5h185q0 -160 80 -225t200 -65q134 0 207.5 62t73.5 174z" />
<glyph unicode="%" horiz-adv-x="1500" d="M105 1176q0 130 80 215.5t218 85.5t218.5 -85.5t80.5 -215.5v-77q0 -129 -80 -214t-217 -85q-139 0 -219.5 85t-80.5 214v77zM244 1099q0 -77 41 -128.5t120 -51.5q77 0 117.5 51.5t40.5 128.5v77q0 77 -41 129.5t-119 52.5t-118.5 -52.5t-40.5 -129.5v-77zM814 357 q0 129 80 214.5t218 85.5t218.5 -85.5t80.5 -214.5v-78q0 -130 -80 -215t-217 -85q-139 0 -219.5 85t-80.5 215v78zM953 279q0 -77 41 -129t120 -52q78 0 118.5 51.5t40.5 129.5v78q0 77 -41 129t-120 52q-78 0 -118.5 -52t-40.5 -129v-78zM459 111l-104 65l711 1138 l104 -65z" />
<glyph unicode="&#x26;" horiz-adv-x="1273" d="M68 390q0 124 70 214t213 186q-80 98 -117 175.5t-37 161.5q0 171 94.5 260.5t266.5 89.5q159 0 254 -88.5t95 -218.5q0 -99 -50.5 -168.5t-152.5 -144.5l-115 -85l348 -418q44 68 67.5 146.5t23.5 170.5h166q0 -133 -38 -243t-113 -201l190 -227h-221l-91 108 q-83 -64 -178.5 -96.5t-203.5 -32.5q-220 0 -345.5 112t-125.5 299zM539 128q76 0 147 25t135 75l-369 442l-42 -31q-97 -73 -127 -135t-30 -114q0 -116 72 -189t214 -73zM382 1129q0 -55 27.5 -113t83.5 -129l144 100q58 39 78.5 83.5t20.5 99.5q0 64 -48 110.5t-130 46.5 q-87 0 -131.5 -56t-44.5 -142z" />
<glyph unicode="'" horiz-adv-x="357" d="M253 1448l-57 -389h-93l1 373v128h149v-112z" />
<glyph unicode="(" horiz-adv-x="673" d="M133 591q0 399 154.5 674.5t335.5 376.5l38 -120q-141 -108 -242 -342t-101 -587v-14q0 -353 100.5 -587t242.5 -351l-38 -111q-182 102 -336 376t-154 675v10z" />
<glyph unicode=")" horiz-adv-x="682" d="M536 581q0 -401 -154.5 -675t-334.5 -376l-39 111q139 107 241 345.5t102 592.5v14q0 348 -105 587.5t-238 350.5l39 111q180 -102 334.5 -377.5t154.5 -673.5v-10z" />
<glyph unicode="*" horiz-adv-x="882" d="M330 984l-302 91l46 148l302 -112l-9 345h153l-10 -351l297 112l46 -150l-307 -92l198 -272l-124 -93l-186 289l-180 -282l-125 90z" />
<glyph unicode="+" horiz-adv-x="1161" d="M670 779h406v-172h-406v-461h-186v461h-406v172h406v427h186v-427z" />
<glyph unicode="," horiz-adv-x="402" d="M308 70q0 -100 -46 -203.5t-128 -174.5l-105 72q48 73 71 145.5t23 157.5v151h185v-148z" />
<glyph unicode="-" horiz-adv-x="565" d="M525 545h-488v149h488v-149z" />
<glyph unicode="." horiz-adv-x="539" d="M350 0h-188v197h188v-197z" />
<glyph unicode="/" horiz-adv-x="844" d="M177 -125h-159l608 1581h158z" />
<glyph unicode="0" horiz-adv-x="1150" d="M1036 556q0 -285 -120.5 -431t-339.5 -146q-218 0 -340 146.5t-122 430.5v343q0 284 121 431t339 147q219 0 340.5 -147t121.5 -431v-343zM851 939q0 196 -69.5 292t-207.5 96q-137 0 -206 -96t-69 -292v-421q0 -196 70 -293t207 -97q138 0 206.5 96t68.5 294v421z" />
<glyph unicode="1" horiz-adv-x="1150" d="M697 0h-185v1244l-297 -8v119l482 101v-1456z" />
<glyph unicode="2" horiz-adv-x="1150" d="M1059 0h-938v131l477 531q132 146 177 229.5t45 173.5q0 114 -64.5 188t-176.5 74q-156 0 -228.5 -77t-72.5 -222h-185q0 195 127 322t359 127q198 0 312.5 -112t114.5 -293q0 -121 -70 -237.5t-201 -260.5l-391 -425h715v-149z" />
<glyph unicode="3" horiz-adv-x="1150" d="M390 816h167q138 0 195.5 66t57.5 186q0 129 -63 194t-192 65q-121 0 -192 -68t-71 -184h-185q0 173 123 287.5t325 114.5q206 0 323 -105.5t117 -307.5q0 -93 -55 -181t-167 -136q135 -43 190 -134t55 -208q0 -203 -128 -314.5t-334 -111.5q-202 0 -332 106.5 t-130 299.5h186q0 -119 73 -188t203 -69q133 0 205 67.5t72 205.5q0 139 -66 203t-210 64h-167v148z" />
<glyph unicode="4" horiz-adv-x="1150" d="M900 488h205v-149h-205v-339h-184v339h-659v107l647 1010h196v-968zM257 488h459v713h-3l-27 -70z" />
<glyph unicode="5" horiz-adv-x="1150" d="M177 657l84 799h725v-169h-569l-48 -420q48 37 105 59.5t138 24.5q202 2 315.5 -128.5t113.5 -358.5q0 -224 -114 -354.5t-343 -130.5q-188 0 -309 99.5t-121 304.5h175q0 -124 69.5 -189.5t185.5 -65.5q132 0 202 87.5t70 246.5q0 145 -70.5 234.5t-198.5 89.5 q-122 0 -176 -35t-80 -111z" />
<glyph unicode="6" horiz-adv-x="1150" d="M671 1477q76 0 148.5 -17t122.5 -44l-40 -145q-52 26 -104.5 41t-126.5 15q-160 0 -255.5 -122.5t-95.5 -328.5v-34q65 59 147.5 91.5t181.5 32.5q199 0 312.5 -132.5t113.5 -345.5q0 -229 -121.5 -369t-329.5 -140q-216 0 -352.5 151.5t-136.5 437.5v287 q0 283 152 452.5t384 169.5zM608 824q-106 0 -178.5 -42.5t-109.5 -116.5v-115q0 -206 85 -314t219 -108q128 0 197 102t69 258q0 150 -73 243t-209 93z" />
<glyph unicode="7" horiz-adv-x="1150" d="M1058 1306q-265 -319 -360 -561.5t-136 -591.5l-15 -153h-186l15 153q43 354 163 621.5t336 531.5h-798v150h981v-150z" />
<glyph unicode="8" horiz-adv-x="1150" d="M1008 1077q0 -117 -63.5 -201.5t-174.5 -127.5q129 -45 203.5 -137t74.5 -218q0 -205 -129 -309.5t-343 -104.5q-218 0 -346 104t-128 310q0 126 72.5 218.5t199.5 136.5v3q-109 41 -170 125.5t-61 200.5q0 196 116.5 298t314.5 102q195 0 314.5 -102.5t119.5 -297.5z M863 397q0 123 -81 200t-208 77q-130 0 -208.5 -76.5t-78.5 -200.5q0 -128 77.5 -198.5t211.5 -70.5q129 0 208 71t79 198zM822 1073q0 112 -69 183t-179 71q-112 0 -179 -68.5t-67 -185.5q0 -115 67.5 -182t180.5 -67q111 0 178.5 67t67.5 182z" />
<glyph unicode="9" horiz-adv-x="1150" d="M511 128q150 0 237 107t87 325v44l-3 1q-48 -73 -123 -110t-169 -37q-215 0 -335.5 129.5t-120.5 370.5q0 232 129 375.5t321 143.5q230 0 358.5 -139t128.5 -420v-356q0 -288 -139 -435.5t-371 -147.5q-79 0 -156.5 14t-143.5 45l29 144q63 -30 126 -42t145 -12z M540 607q114 0 188 48t107 125v156q0 197 -74.5 294t-220.5 97q-116 0 -193 -102t-77 -267q0 -161 71 -256t199 -95z" />
<glyph unicode=":" horiz-adv-x="504" d="M348 0h-188v197h188v-197zM349 885h-188v197h188v-197z" />
<glyph unicode=";" horiz-adv-x="512" d="M350 885h-188v197h188v-197zM353 70q0 -100 -46 -203.5t-128 -174.5l-105 72q48 73 71 145.5t23 157.5v151h185v-148z" />
<glyph unicode="&#x3c;" horiz-adv-x="1041" d="M322 667l-79 -20v-4l79 -20l568 -233v-193l-818 379v143l818 378v-193z" />
<glyph unicode="=" horiz-adv-x="1152" d="M986 815h-834v158h834v-158zM986 400h-834v158h834v-158z" />
<glyph unicode="&#x3e;" horiz-adv-x="1070" d="M134 911v187l854 -378v-143l-854 -379v188l604 242l82 21v3l-82 22z" />
<glyph unicode="?" horiz-adv-x="967" d="M359 409q1 147 23.5 200t124.5 146q102 118 144 181t42 156q0 111 -57 168t-167 57q-97 0 -161 -50.5t-64 -150.5h-186q2 169 115.5 265t295.5 96q198 0 304 -98.5t106 -281.5q0 -132 -68.5 -236t-188.5 -220q-56 -54 -67 -96t-11 -136h-185zM552 0h-196v203h196v-203z " />
<glyph unicode="@" horiz-adv-x="1839" d="M1735 503q-9 -218 -117.5 -371t-331.5 -153q-75 0 -127.5 42t-74.5 120q-52 -83 -123 -122.5t-169 -39.5q-129 0 -196.5 118.5t-49.5 318.5q24 264 137 417.5t281 153.5q106 0 167 -25.5t137 -80.5l-4 -4h6l-51 -584q-9 -114 22.5 -155.5t83.5 -41.5q128 0 202 113 t83 294q17 391 -141.5 600.5t-504.5 209.5q-316 0 -504 -228t-204 -607q-18 -384 149 -600t491 -216q90 0 178.5 21t152.5 57l37 -104q-69 -43 -170.5 -66t-201.5 -23q-387 0 -591 245t-186 686q19 431 246 691.5t607 260.5q388 0 586 -244.5t181 -682.5zM712 416 q-12 -146 21.5 -220.5t112.5 -74.5q68 0 123 26.5t101 96.5v26.5t2 22.5l47 538q-27 13 -57 21t-64 8q-129 0 -197 -108.5t-89 -335.5z" />
<glyph unicode="A" horiz-adv-x="1354" d="M984 388h-613l-143 -388h-189l562 1456h160l553 -1456h-189zM426 537h504l-250 690z" />
<glyph unicode="B" horiz-adv-x="1303" d="M182 0v1456h467q232 0 358.5 -96.5t126.5 -296.5q0 -100 -60.5 -176t-159.5 -112v-3q131 -27 205 -126.5t74 -235.5q0 -203 -127 -306.5t-352 -103.5h-532zM367 685v-536h347q141 0 217.5 66.5t76.5 192.5q0 131 -64.5 204t-201.5 73h-375zM367 834h332q115 3 182.5 62.5 t67.5 170.5q0 122 -75.5 180.5t-224.5 58.5h-282v-472z" />
<glyph unicode="C" horiz-adv-x="1310" d="M1225 461q-24 -220 -160.5 -351t-377.5 -131q-252 0 -404 172t-152 448v257q0 275 152 448t404 173q245 0 379.5 -126.5t158.5 -358.5h-185q-25 166 -106.5 250.5t-246.5 84.5q-172 0 -271.5 -132.5t-99.5 -336.5v-259q0 -206 99.5 -338.5t271.5 -132.5q166 0 247 82 t106 251h185z" />
<glyph unicode="D" horiz-adv-x="1385" d="M182 0v1456h443q290 0 460 -173t170 -457v-197q0 -286 -172 -457.5t-476 -171.5h-425zM367 1306v-1157h240q232 0 347 130.5t115 349.5v199q0 223 -113 350.5t-331 127.5h-258z" />
<glyph unicode="E" horiz-adv-x="1194" d="M1039 678h-672v-529h774v-149h-959v1456h949v-150h-764v-478h672v-150z" />
<glyph unicode="F" horiz-adv-x="1191" d="M1037 648h-670v-648h-185v1456h957v-150h-772v-508h670v-150z" />
<glyph unicode="G" horiz-adv-x="1406" d="M1243 191q-52 -80 -178.5 -146t-333.5 -66q-265 0 -431.5 165t-166.5 436v297q0 271 155.5 435.5t411.5 164.5q248 0 380 -118.5t163 -324.5h-185q-26 135 -107.5 214t-250.5 79q-175 0 -278 -124.5t-103 -323.5v-299q0 -201 114 -326.5t298 -125.5q130 0 211 33t116 77 v336h-330v149h515v-532z" />
<glyph unicode="H" horiz-adv-x="1459" d="M1277 0h-185v646h-725v-646h-185v1456h185v-661h725v661h185v-1456z" />
<glyph unicode="I" horiz-adv-x="575" d="M380 0h-185v1456h185v-1456z" />
<glyph unicode="J" horiz-adv-x="1130" d="M775 1456h185v-1052q0 -200 -121 -312.5t-320 -112.5q-213 0 -334.5 105t-121.5 317h185q0 -140 69 -206.5t202 -66.5q114 0 185 74t71 202v1052z" />
<glyph unicode="K" horiz-adv-x="1316" d="M543 660h-176v-660h-185v1456h185v-647h159l529 647h212l-573 -706l614 -750h-227z" />
<glyph unicode="L" horiz-adv-x="1120" d="M367 149h694v-149h-879v1456h185v-1307z" />
<glyph unicode="M" horiz-adv-x="1795" d="M420 1456l477 -1201l478 1201h238v-1456h-185v583l19 611h-3l-485 -1194h-124l-484 1192h-3l19 -609v-583h-185v1456h238z" />
<glyph unicode="N" horiz-adv-x="1460" d="M1278 0h-185l-723 1147h-3v-1147h-185v1456h185l723 -1146h3v1146h185v-1456z" />
<glyph unicode="O" horiz-adv-x="1424" d="M1293 599q0 -268 -162.5 -444t-428.5 -176q-258 0 -415 176t-157 444v257q0 267 157 444t415 177q266 0 428.5 -177t162.5 -444v-257zM1108 858q0 201 -109 332t-297 131q-180 0 -283.5 -131t-103.5 -332v-259q0 -203 103.5 -334t283.5 -131q189 0 297.5 130.5 t108.5 334.5v259z" />
<glyph unicode="P" horiz-adv-x="1305" d="M367 586v-586h-185v1456h548q237 0 363.5 -117.5t126.5 -317.5q0 -202 -126.5 -318.5t-363.5 -116.5h-363zM367 735h363q156 0 230.5 79.5t74.5 204.5q0 126 -74.5 206.5t-230.5 80.5h-363v-571z" />
<glyph unicode="Q" horiz-adv-x="1424" d="M1293 599q0 -161 -62 -291.5t-177 -216.5l238 -220l-127 -115l-270 253q-47 -14 -94.5 -22t-98.5 -8q-258 0 -415 176t-157 444v257q0 267 157 444t415 177q266 0 428.5 -177t162.5 -444v-257zM1108 858q0 201 -109 332t-297 131q-180 0 -283.5 -131t-103.5 -332v-259 q0 -203 103.5 -334t283.5 -131q189 0 297.5 130.5t108.5 334.5v259z" />
<glyph unicode="R" horiz-adv-x="1356" d="M366 634v-634h-185v1455h522q243 0 366.5 -103.5t123.5 -309.5q0 -114 -60.5 -196t-177.5 -132q123 -40 175.5 -125.5t52.5 -217.5v-137q0 -70 15 -122.5t52 -87.5v-24h-191q-40 35 -51 100.5t-11 135.5v133q0 122 -70 193.5t-194 71.5h-367zM366 783h318q175 0 249.5 64 t74.5 197q0 127 -73 194.5t-232 67.5h-337v-523z" />
<glyph unicode="S" horiz-adv-x="1251" d="M976 366q0 104 -75 170.5t-274 115.5q-236 56 -363 160t-127 269q0 173 137.5 284.5t362.5 111.5q241 0 381 -129t140 -311h-185q0 132 -86 211t-250 79q-155 0 -235 -66.5t-80 -176.5q0 -98 84.5 -161.5t284.5 -112.5q234 -59 352.5 -167t118.5 -275q0 -179 -141.5 -284 t-376.5 -105q-223 0 -388.5 116t-165.5 323h185q0 -145 105.5 -217.5t263.5 -72.5q156 0 244 63t88 175z" />
<glyph unicode="T" horiz-adv-x="1222" d="M1162 1306h-459v-1306h-185v1306h-459v150h1103v-150z" />
<glyph unicode="U" horiz-adv-x="1384" d="M1239 1456v-987q0 -242 -151 -366t-402 -124q-244 0 -390 124t-146 366v987h186v-987q0 -171 94.5 -256t255.5 -85q169 0 268.5 85t99.5 256v987h185z" />
<glyph unicode="V" horiz-adv-x="1321" d="M626 350l33 -118h4l33 118l386 1106h200l-541 -1456h-161l-541 1456h201z" />
<glyph unicode="W" horiz-adv-x="1805" d="M467 495l31 -202h3l44 202l273 961h165l275 -961l43 -204h3l33 204l207 961h186l-338 -1456h-166l-293 1021l-29 145h-3l-29 -145l-297 -1021h-166l-337 1456h185z" />
<glyph unicode="X" horiz-adv-x="1289" d="M646 883l352 573h223l-465 -722l476 -734h-220l-362 584l-361 -584h-224l476 734l-465 722h222z" />
<glyph unicode="Y" horiz-adv-x="1266" d="M632 702l391 754h212l-514 -942v-514h-184v527l-507 929h212z" />
<glyph unicode="Z" horiz-adv-x="1225" d="M309 149h824v-149h-1036v141l788 1165h-775v150h990v-136z" />
<glyph unicode="[" horiz-adv-x="543" d="M523 1514h-191v-1676h191v-150h-377v1976h377v-150z" />
<glyph unicode="\" horiz-adv-x="840" d="M40 1456h176l608 -1581h-176z" />
<glyph unicode="]" horiz-adv-x="543" d="M9 1664h378v-1976h-378v150h193v1676h-193v150z" />
<glyph unicode="^" horiz-adv-x="856" d="M236 729h-172l299 727h127l298 -727h-171l-171 426l-19 85h-4l-19 -85z" />
<glyph unicode="_" horiz-adv-x="924" d="M920 -149h-916v149h916v-149z" />
<glyph unicode="`" horiz-adv-x="633" d="M484 1211h-152l-253 266h226z" />
<glyph unicode="a" horiz-adv-x="1122" d="M813 0q-10 51 -15 84t-7 69q-58 -76 -144 -124.5t-189 -48.5q-171 0 -257.5 84.5t-86.5 237.5q0 158 124 244t344 86h209v110q0 99 -61 154.5t-174 55.5q-105 0 -169.5 -49.5t-64.5 -120.5h-185q0 125 119 222.5t310 97.5q187 0 298.5 -92t111.5 -270v-522q0 -58 6 -111 t22 -107h-191zM485 139q104 0 186.5 48t119.5 118v199h-215q-129 0 -203 -60.5t-74 -145.5q0 -75 46.5 -117t139.5 -42z" />
<glyph unicode="b" d="M1061 501q0 -240 -109.5 -380.5t-310.5 -140.5q-109 0 -187 41t-131 123l-18 -144h-160v1560h186v-608l3 -1q50 74 125 112.5t180 38.5q203 0 312.5 -157t109.5 -423v-21zM876 522q0 192 -69 309t-214 117q-97 0 -160.5 -45t-101.5 -124v-475q39 -80 102.5 -125 t161.5 -45q145 0 213 99t68 268v21z" />
<glyph unicode="c" horiz-adv-x="1083" d="M579 129q103 0 178.5 60t76.5 152h176q-1 -148 -128.5 -254.5t-302.5 -106.5q-238 0 -360 151.5t-122 388.5v42q0 236 122 388t360 152q191 0 310.5 -110t120.5 -282h-176q-1 104 -72 173t-183 69q-161 0 -228.5 -111.5t-67.5 -278.5v-42q0 -171 67 -281t229 -110z" />
<glyph unicode="d" d="M100 522q0 266 109 423t313 157q100 0 173 -36t125 -106l3 1v599h185v-1560h-161l-16 135q-54 -78 -130 -116.5t-181 -38.5q-201 0 -310.5 141t-109.5 380v21zM285 501q0 -170 67.5 -268.5t213.5 -98.5q94 0 155 41t102 117v502q-40 72 -102 113t-153 41 q-147 0 -215 -117t-68 -309v-21z" />
<glyph unicode="e" horiz-adv-x="1079" d="M590 -20q-228 0 -360 147.5t-132 391.5v45q0 236 135.5 387t326.5 151q220 0 330.5 -129t110.5 -353v-121h-717q4 -166 82.5 -268t223.5 -102q101 0 174.5 28t132.5 79l73 -123q-59 -58 -151.5 -95.5t-228.5 -37.5zM560 952q-105 0 -177.5 -84.5t-92.5 -219.5h526v26 q0 121 -64 199.5t-192 78.5z" />
<glyph unicode="f" horiz-adv-x="702" d="M236 0v941h-170v141h170v139q0 175 87.5 267.5t250.5 92.5q34 0 67.5 -5.5t76.5 -15.5l-23 -145q-19 5 -44 8t-54 3q-90 0 -132.5 -52t-42.5 -153v-139h230v-141h-230v-941h-186z" />
<glyph unicode="g" d="M102 522q0 266 111 423t316 157q106 0 182 -41t130 -122l18 143h156v-1068q0 -214 -121 -332t-349 -118q-84 0 -173.5 22t-166.5 64l47 138q66 -33 140.5 -53.5t150.5 -20.5q147 0 217 78.5t70 221.5v105l-3 1q-52 -70 -126 -105t-174 -35q-202 0 -313.5 141t-111.5 380 v21zM287 501q0 -169 69 -268t216 -99q94 0 155.5 41.5t102.5 119.5v496q-39 74 -101 115.5t-155 41.5q-147 0 -217 -117.5t-70 -308.5v-21z" />
<glyph unicode="h" d="M331 935l3 -1q55 80 136 124t184 44q177 0 270.5 -102t93.5 -323v-677h-185v679q0 141 -58 205t-177 64q-87 0 -155 -41t-112 -113v-794h-186v1560h186v-625z" />
<glyph unicode="i" horiz-adv-x="508" d="M346 0h-185v1082h185v-1082zM346 1362h-185v198h185v-198z" />
<glyph unicode="j" horiz-adv-x="523" d="M359 1082v-1171q0 -170 -83.5 -259t-238.5 -89q-32 0 -57 4.5t-54 13.5l14 150q15 -5 41.5 -9t43.5 -4q70 0 109.5 45t39.5 148v1171h185zM353 1366h-185v194h185v-194z" />
<glyph unicode="k" horiz-adv-x="1043" d="M461 502h-129v-502h-186v1560h186v-907h126l315 429h219l-378 -493l430 -589h-219z" />
<glyph unicode="l" horiz-adv-x="508" d="M346 0h-185v1560h185v-1560z" />
<glyph unicode="m" horiz-adv-x="1794" d="M311 1082l13 -144l3 -1q52 79 132.5 122t192.5 43q113 0 190 -50.5t116 -156.5q52 97 135.5 152t200.5 55q169 0 262.5 -110t93.5 -342v-650h-186v651q0 165 -55.5 231t-168.5 66q-111 -1 -175 -74t-75 -184v-1v-689h-186v653q0 157 -57 226t-169 69q-97 0 -156.5 -40 t-91.5 -114v-794h-186v1082h167z" />
<glyph unicode="n" d="M312 1082l13 -162l3 -1q53 87 134.5 135t188.5 48q177 0 271 -100t94 -319v-683h-186v679q0 149 -56.5 209t-177.5 60q-91 0 -157.5 -43t-107.5 -120v-785h-186v1082h167z" />
<glyph unicode="o" d="M96 552q0 245 128 397.5t354 152.5q228 0 356.5 -152.5t128.5 -397.5v-24q0 -246 -128 -397t-355 -151q-228 0 -356 151t-128 397v24zM282 528q0 -177 74 -288t224 -111q148 0 223 111.5t75 287.5v24q0 174 -75.5 287t-224.5 113q-148 0 -222 -113t-74 -287v-24z" />
<glyph unicode="p" d="M1060 501q0 -240 -109.5 -380.5t-310.5 -140.5q-103 0 -178 33.5t-128 100.5l-3 -1v-529h-186v1498h159l18 -138q54 78 131 118t184 40q204 0 313.5 -156.5t109.5 -423.5v-21zM874 522q0 191 -72 308.5t-219 117.5q-91 0 -152.5 -40t-99.5 -110v-522q40 -71 100.5 -109 t153.5 -38q146 0 217.5 101.5t71.5 270.5v21z" />
<glyph unicode="q" d="M100 522q0 266 109 423t313 157q100 0 173.5 -36.5t127.5 -108.5l15 125h160v-1498h-185v522l-3 1q-52 -64 -123 -95.5t-167 -31.5q-201 0 -310.5 141t-109.5 380v21zM285 501q0 -170 67.5 -271t213.5 -101q88 0 147 37t100 107v538q-41 66 -100.5 103.5t-144.5 37.5 q-147 0 -215 -118.5t-68 -311.5v-21z" />
<glyph unicode="r" horiz-adv-x="714" d="M664 915l-108 6q-85 0 -140 -39t-85 -112v-770h-186v1082h166l18 -157l3 -1q45 84 113 131t160 47q24 0 47.5 -3.5t36.5 -7.5z" />
<glyph unicode="s" horiz-adv-x="1067" d="M777 286q0 68 -50 110.5t-195 73.5q-200 43 -296.5 115t-96.5 201q0 134 109 225t291 91q192 0 302 -95.5t110 -241.5h-185q0 74 -61 130.5t-166 56.5q-110 0 -162.5 -46.5t-52.5 -113.5t45 -103.5t191 -67.5q207 -45 304.5 -119t97.5 -203q0 -146 -113.5 -232.5 t-304.5 -86.5q-209 0 -325.5 102.5t-116.5 249.5h185q6 -109 80 -156t177 -47q112 0 172.5 42.5t60.5 114.5z" />
<glyph unicode="t" horiz-adv-x="652" d="M370 1345v-263h208v-141h-208v-662q0 -80 27 -111.5t74 -31.5q24 0 48.5 3.5t45.5 9.5l25 -131q-26 -17 -72.5 -27.5t-92.5 -10.5q-113 0 -177 70.5t-64 228.5v662h-155v141h155v263h186z" />
<glyph unicode="u" d="M835 158l-3 1q-50 -87 -129 -133t-188 -46q-180 0 -277 110.5t-97 354.5v637h186v-639q0 -178 52 -243.5t165 -65.5q112 0 180.5 43.5t104.5 126.5v778h185v-1082h-166z" />
<glyph unicode="v" horiz-adv-x="1026" d="M498 314l22 -93h3l23 93l256 768h189l-400 -1082h-141l-404 1082h189z" />
<glyph unicode="w" horiz-adv-x="1550" d="M416 390l27 -150l3 -1l33 151l218 692h150l218 -692l35 -164h3l34 164l175 692h184l-314 -1082h-150l-214 667l-47 193h-3l-45 -193l-210 -667h-151l-314 1082h185z" />
<glyph unicode="x" horiz-adv-x="1026" d="M508 679l240 403h216l-353 -535l364 -547h-213l-250 414l-250 -414h-216l365 547l-354 535h214z" />
<glyph unicode="y" horiz-adv-x="1026" d="M473 390l38 -144h3l275 836h207l-458 -1249q-41 -111 -115 -190.5t-206 -79.5q-24 0 -59 5.5t-55 10.5l19 149q-3 1 36 -2t50 -3q67 0 98 37.5t77 144.5l49 117l-405 1060h207z" />
<glyph unicode="z" horiz-adv-x="1026" d="M318 149h634v-149h-858v133l593 798h-585v151h814v-129z" />
<glyph unicode="{" horiz-adv-x="693" d="M632 -368q-196 56 -276 173.5t-80 291.5v207q0 115 -51 177t-161 62v143q110 0 161 61t51 177v208q0 174 79.5 291.5t276.5 173.5l38 -113q-115 -37 -162 -126.5t-47 -225.5v-208q0 -107 -41 -186t-128 -124q87 -46 128 -125t41 -185v-207q0 -135 47 -224.5t162 -126.5z " />
<glyph unicode="|" horiz-adv-x="499" d="M324 -270h-149v1726h149v-1726z" />
<glyph unicode="}" horiz-adv-x="693" d="M19 -254q114 37 162 126.5t48 224.5v207q0 110 43.5 188t138.5 121q-95 42 -138.5 121t-43.5 190v208q0 136 -47.5 225.5t-161.5 126.5l38 113q196 -56 276 -173t80 -292v-208q0 -116 50.5 -177t161.5 -61v-143q-111 0 -161.5 -62t-50.5 -177v-207q0 -174 -80 -291.5 t-276 -173.5z" />
<glyph unicode="~" horiz-adv-x="1393" d="M1263 740q0 -139 -85 -238t-216 -99q-91 0 -162 32.5t-161 107.5q-60 50 -108.5 74t-100.5 24q-70 0 -117.5 -53t-47.5 -132l-135 18q0 138 83.5 232.5t216.5 94.5q90 0 163 -34t160 -106q60 -53 108 -75.5t101 -22.5q69 0 117.5 57t48.5 138z" />
<glyph unicode="&#xa1;" horiz-adv-x="499" d="M331 -374h-185v978h185v-978zM333 878h-189v204h189v-204z" />
<glyph unicode="&#xa2;" horiz-adv-x="1121" d="M592 129q103 0 178.5 60t76.5 152h176q-1 -130 -102 -230t-251 -124v-232h-186v236q-186 35 -280 178.5t-94 350.5v42q0 205 94 348.5t280 180.5v227h186v-222q160 -24 256 -129t97 -257h-176q-1 104 -72 173t-183 69q-161 0 -228.5 -111.5t-67.5 -278.5v-42 q0 -171 67 -281t229 -110z" />
<glyph unicode="&#xa3;" horiz-adv-x="1190" d="M425 618l6 -152q0 -93 -16.5 -174.5t-48.5 -142.5h739l-1 -149h-970v149h10q52 13 77 111.5t25 205.5l-6 152h-170v149h164l-10 273q0 208 109.5 322.5t299.5 114.5q202 0 308.5 -103.5t106.5 -283.5h-186q0 124 -62.5 180.5t-166.5 56.5q-105 0 -164 -74t-59 -213 l10 -273h423v-149h-418z" />
<glyph unicode="&#xa4;" horiz-adv-x="1460" d="M1103 112q-79 -65 -171.5 -98.5t-196.5 -33.5q-105 0 -196.5 33t-169.5 97l-134 -136l-130 133l140 142q-52 78 -78.5 167.5t-26.5 191.5q0 105 28.5 197.5t84.5 173.5l-148 151l130 134l147 -150q76 59 164.5 89.5t188.5 30.5t188.5 -31t166.5 -90l149 152l132 -135 l-152 -155q54 -80 82.5 -171.5t28.5 -195.5q0 -100 -26.5 -189t-75.5 -167l143 -145l-132 -134zM311 608q0 -195 122 -327t302 -132q178 0 300 132t122 327q0 193 -122 324.5t-300 131.5q-180 0 -302 -131.5t-122 -324.5z" />
<glyph unicode="&#xa5;" horiz-adv-x="1240" d="M614 781l369 675h212l-422 -721h319v-120h-389v-171h389v-118h-389v-326h-185v326h-381v118h381v171h-381v120h318l-423 721h213z" />
<glyph unicode="&#xa6;" horiz-adv-x="491" d="M147 -270v790h186v-790h-186zM333 698h-186v758h186v-758z" />
<glyph unicode="&#xa7;" horiz-adv-x="1256" d="M1144 431q0 -96 -48 -164.5t-139 -109.5q73 -52 108 -118.5t35 -167.5q0 -174 -130 -270t-358 -96q-225 0 -373.5 101.5t-148.5 329.5l186 2q0 -149 97.5 -216t238.5 -67q143 0 222.5 59.5t79.5 154.5t-70.5 144.5t-280.5 113.5q-245 65 -356 154.5t-111 269.5 q0 93 47 162.5t137 111.5q-71 51 -105 118.5t-34 167.5q0 168 131 267t358 99q236 0 364 -110.5t128 -320.5h-185q0 123 -80.5 202t-226.5 79q-153 0 -228 -59.5t-75 -154.5q0 -103 65.5 -151.5t283.5 -108.5q249 -69 358.5 -156.5t109.5 -265.5zM602 693q-52 13 -91 25 t-73 26q-80 -19 -118 -68.5t-38 -122.5q0 -104 67.5 -154.5t286.5 -111.5q49 -14 87 -26t73 -24q79 20 121 69.5t42 121.5q0 94 -73 147t-284 118z" />
<glyph unicode="&#xa8;" horiz-adv-x="1012" d="M850 1260h-211v196h211v-196zM381 1260h-212v196h212v-196z" />
<glyph unicode="&#xa9;" horiz-adv-x="1609" d="M1119 596q0 -158 -86.5 -236t-244.5 -78q-162 0 -254 104.5t-92 282.5v119q0 176 92 281.5t254 105.5q158 0 245 -78.5t87 -234.5h-146q0 99 -45.5 142.5t-140.5 43.5q-99 0 -150.5 -70.5t-51.5 -188.5v-120q0 -121 51.5 -191t150.5 -70q95 0 140 43t45 145h146zM206 729 q0 -272 171 -452.5t424 -180.5q251 0 422.5 180.5t171.5 452.5q0 270 -171.5 449.5t-422.5 179.5q-253 0 -424 -179.5t-171 -449.5zM91 729q0 321 204 534t506 213q300 0 504.5 -213t204.5 -534q0 -322 -204.5 -536t-504.5 -214q-302 0 -506 213.5t-204 536.5z" />
<glyph unicode="&#xaa;" horiz-adv-x="915" d="M618 706q-8 21 -13 45t-8 50q-34 -49 -90 -79t-136 -30q-121 0 -185 60t-64 168q0 111 82 170t245 59h145v53q0 67 -30.5 101.5t-93.5 34.5q-72 0 -110 -27.5t-38 -80.5l-161 14q0 104 83.5 168.5t225.5 64.5q135 0 211 -70t76 -206v-314q0 -51 6 -94.5t20 -86.5h-165z M410 827q55 0 110 29.5t74 67.5v114h-144q-79 0 -122 -33t-43 -81t30 -72.5t95 -24.5z" />
<glyph unicode="&#xab;" horiz-adv-x="961" d="M280 516l258 -397h-141l-295 388v19l295 387h141zM610 516l258 -397h-141l-295 388v19l295 387h141z" />
<glyph unicode="&#xac;" horiz-adv-x="1134" d="M958 376h-186v264h-645v159h831v-423z" />
<glyph unicode="&#xad;" horiz-adv-x="565" d="M525 545h-488v149h488v-149z" />
<glyph unicode="&#xae;" horiz-adv-x="1610" d="M90 729q0 321 204 534t506 213q300 0 504.5 -213t204.5 -534q0 -322 -204.5 -536t-504.5 -214q-302 0 -506 213.5t-204 536.5zM205 729q0 -272 171 -452.5t424 -180.5q252 0 423 180.5t171 452.5q0 270 -171 449.5t-423 179.5q-253 0 -424 -179.5t-171 -449.5zM653 656 v-340h-141v850h276q154 0 238 -64t84 -192q0 -63 -33 -109.5t-97 -78.5q67 -27 96 -79t29 -128v-56q0 -42 3.5 -74t13.5 -53v-16h-145q-10 22 -12 61.5t-2 82.5v54q0 75 -33.5 108.5t-113.5 33.5h-163zM653 782h156q69 1 114.5 32.5t45.5 90.5q0 76 -39 105.5t-142 29.5 h-135v-258z" />
<glyph unicode="&#xaf;" horiz-adv-x="938" d="M834 1315h-714v141h714v-141z" />
<glyph unicode="&#xb0;" horiz-adv-x="765" d="M130 1217q0 108 74 184t181 76q105 0 178 -76t73 -184q0 -109 -73 -182.5t-178 -73.5q-107 0 -181 73.5t-74 182.5zM255 1217q0 -57 37 -93.5t93 -36.5q55 0 91.5 36t36.5 94t-36.5 95.5t-91.5 37.5t-92.5 -38t-37.5 -95z" />
<glyph unicode="&#xb1;" horiz-adv-x="1095" d="M650 854h363v-150h-363v-415h-167v415h-386v150h386v413h167v-413zM982 9h-835v149h835v-149z" />
<glyph unicode="&#xb2;" horiz-adv-x="863" d="M710 667h-588v126l303 264q72 62 94 99t22 81q0 52 -29 83.5t-92 31.5q-72 0 -109 -32.5t-37 -85.5h-161q0 105 82 175t225 70q136 0 210 -62.5t74 -180.5q0 -80 -43.5 -134.5t-160.5 -162.5l-168 -146h378v-126z" />
<glyph unicode="&#xb3;" horiz-adv-x="872" d="M423 1135q72 0 104.5 29t32.5 83q0 46 -36.5 75t-110.5 29q-59 0 -96 -25t-37 -67h-162q0 101 83.5 160t211.5 59q146 0 227.5 -58.5t81.5 -170.5q0 -56 -34.5 -101t-97.5 -71q72 -24 109 -70.5t37 -116.5q0 -113 -88 -174t-235 -61q-128 0 -218 58t-90 175h163 q0 -49 38.5 -78t106.5 -29q77 0 119 29.5t42 80.5q0 65 -37 93.5t-114 28.5h-131v122h131z" />
<glyph unicode="&#xb4;" horiz-adv-x="642" d="M317 1478h225l-272 -266h-141z" />
<glyph unicode="&#xb5;" d="M339 1082v-623q0 -195 56.5 -263t163.5 -68q106 0 167.5 38.5t93.5 114.5v801h186v-1082h-166l-10 110l-3 1q-43 -65 -107.5 -98.5t-152.5 -33.5q-76 0 -131 17t-97 57v-469h-185v1498h185z" />
<glyph unicode="&#xb6;" horiz-adv-x="1001" d="M645 0v520h-87q-238 0 -365 127.5t-127 340.5q0 211 127.5 339.5t364.5 128.5h273v-1456h-186z" />
<glyph unicode="&#xb7;" horiz-adv-x="534" d="M353 624h-191v209h191v-209z" />
<glyph unicode="&#xb8;" horiz-adv-x="507" d="M285 0l-12 -53q67 -11 110 -51t43 -122q0 -97 -77.5 -153t-225.5 -56l-7 106q74 0 120 24.5t46 75.5q0 50 -36 69t-126 26l32 134h133z" />
<glyph unicode="&#xb9;" horiz-adv-x="550" d="M388 665h-164v660l-130 -1v130l294 23v-812z" />
<glyph unicode="&#xba;" horiz-adv-x="931" d="M122 1142q0 150 91.5 242.5t250.5 92.5q160 0 251.5 -92t91.5 -243v-117q0 -152 -91 -243t-250 -91q-160 0 -252 91.5t-92 242.5v117zM285 1025q0 -91 45 -144.5t136 -53.5q88 0 133 53.5t45 144.5v117q0 88 -45.5 142t-134.5 54t-134 -54t-45 -142v-117z" />
<glyph unicode="&#xbb;" horiz-adv-x="960" d="M253 948l295 -388v-19l-295 -388h-142l258 397l-258 398h142zM593 948l295 -388v-19l-295 -388h-142l258 397l-258 398h142z" />
<glyph unicode="&#xbc;" horiz-adv-x="1590" d="M474 664h-164v660l-130 -1v130l294 23v-812zM440 119l-104 65l711 1138l104 -65zM1370 280h130v-126h-130v-154h-161v154h-419l-7 98l422 549h165v-521zM957 280h252v326l-3 1l-18 -31z" />
<glyph unicode="&#xbd;" horiz-adv-x="1686" d="M453 119l-104 65l711 1138l104 -65zM474 664h-164v660l-130 -1v130l294 23v-812zM1518 0h-588v126l303 264q72 62 94 99t22 81q0 52 -29 83.5t-92 31.5q-72 0 -109 -32.5t-37 -85.5h-161q0 105 82 175t225 70q136 0 210 -62.5t74 -180.5q0 -80 -43.5 -134.5 t-160.5 -162.5l-168 -146h378v-126z" />
<glyph unicode="&#xbe;" horiz-adv-x="1771" d="M628 119l-104 65l711 1138l104 -65zM1563 280h130v-126h-130v-154h-161v154h-419l-7 98l422 549h165v-521zM1150 280h252v326l-3 1l-18 -31zM441 1136q72 0 104.5 29t32.5 83q0 46 -36.5 75t-110.5 29q-59 0 -96 -25t-37 -67h-162q0 101 83.5 160t211.5 59 q146 0 227.5 -58.5t81.5 -170.5q0 -56 -34.5 -101t-97.5 -71q72 -24 109 -70.5t37 -116.5q0 -113 -88 -174t-235 -61q-128 0 -218 58t-90 175h163q0 -49 38.5 -78t106.5 -29q77 0 119 29.5t42 80.5q0 65 -37 93.5t-114 28.5h-131v122h131z" />
<glyph unicode="&#xbf;" horiz-adv-x="1005" d="M634 673q-2 -148 -24.5 -200.5t-124.5 -145.5q-103 -119 -144.5 -181.5t-41.5 -154.5q0 -111 56.5 -168t167.5 -57q96 0 160.5 50.5t65.5 150.5h185q-3 -169 -116.5 -265t-294.5 -96q-199 0 -304.5 98.5t-105.5 281.5q0 130 68 234t189 221q55 53 66.5 95t11.5 137h186z M440 1083h196v-204h-196v204z" />
<glyph unicode="&#xc0;" horiz-adv-x="1354" d="M984 388h-613l-143 -388h-189l562 1456h160l553 -1456h-189zM426 537h504l-250 690zM760 1560h-152l-253 266h226z" />
<glyph unicode="&#xc1;" horiz-adv-x="1354" d="M984 388h-613l-143 -388h-189l562 1456h160l553 -1456h-189zM426 537h504l-250 690zM779 1823h225l-272 -266h-141z" />
<glyph unicode="&#xc2;" horiz-adv-x="1354" d="M984 388h-613l-143 -388h-189l562 1456h160l553 -1456h-189zM426 537h504l-250 690zM982 1625v-24h-153l-150 150l-149 -150h-153v25l244 236h116z" />
<glyph unicode="&#xc3;" horiz-adv-x="1354" d="M984 388h-613l-143 -388h-189l562 1456h160l553 -1456h-189zM426 537h504l-250 690zM1022 1842q0 -95 -58 -158.5t-149 -63.5q-73 0 -148.5 47.5t-128.5 47.5q-44 0 -73 -32.5t-29 -80.5l-104 26q0 94 57 160.5t149 66.5q59 0 141 -48t136 -48q43 0 73 32.5t30 81.5z" />
<glyph unicode="&#xc4;" horiz-adv-x="1354" d="M984 388h-613l-143 -388h-189l562 1456h160l553 -1456h-189zM426 537h504l-250 690zM1020 1608h-211v196h211v-196zM551 1608h-212v196h212v-196z" />
<glyph unicode="&#xc5;" horiz-adv-x="1354" d="M984 388h-613l-143 -388h-189l562 1456h160l553 -1456h-189zM426 537h504l-250 690zM476 1734q0 84 58 139t144 55q84 0 141.5 -55t57.5 -139q0 -86 -57 -138.5t-142 -52.5q-87 0 -144.5 52.5t-57.5 138.5zM575 1734q0 -44 30 -73.5t73 -29.5t71.5 29t28.5 74t-28.5 75 t-71.5 30t-73 -30t-30 -75z" />
<glyph unicode="&#xc6;" horiz-adv-x="1914" d="M1879 0h-883l-15 354h-564l-205 -354h-226l880 1456h951v-150h-691l20 -474h590v-149h-584l23 -534h704v-149zM516 526h458l-31 732h-3z" />
<glyph unicode="&#xc7;" horiz-adv-x="1310" d="M1225 461q-24 -220 -160.5 -351t-377.5 -131q-252 0 -404 172t-152 448v257q0 275 152 448t404 173q245 0 379.5 -126.5t158.5 -358.5h-185q-25 166 -106.5 250.5t-246.5 84.5q-172 0 -271.5 -132.5t-99.5 -336.5v-259q0 -206 99.5 -338.5t271.5 -132.5q166 0 247 82 t106 251h185zM760 -9l-12 -53q67 -11 110 -51t43 -122q0 -97 -77.5 -153t-225.5 -56l-7 106q74 0 120 24.5t46 75.5q0 50 -36 69t-126 26l32 134h133z" />
<glyph unicode="&#xc8;" horiz-adv-x="1194" d="M1039 678h-672v-529h774v-149h-959v1456h949v-150h-764v-478h672v-150zM708 1560h-152l-253 266h226z" />
<glyph unicode="&#xc9;" horiz-adv-x="1194" d="M1039 678h-672v-529h774v-149h-959v1456h949v-150h-764v-478h672v-150zM727 1823h225l-272 -266h-141z" />
<glyph unicode="&#xca;" horiz-adv-x="1194" d="M1039 678h-672v-529h774v-149h-959v1456h949v-150h-764v-478h672v-150zM930 1625v-24h-153l-150 150l-149 -150h-153v25l244 236h116z" />
<glyph unicode="&#xcb;" horiz-adv-x="1194" d="M1039 678h-672v-529h774v-149h-959v1456h949v-150h-764v-478h672v-150zM968 1608h-211v196h211v-196zM499 1608h-212v196h212v-196z" />
<glyph unicode="&#xcc;" horiz-adv-x="575" d="M380 0h-185v1456h185v-1456zM369 1560h-152l-253 266h226z" />
<glyph unicode="&#xcd;" horiz-adv-x="575" d="M380 0h-185v1456h185v-1456zM387 1823h225l-272 -266h-141z" />
<glyph unicode="&#xce;" horiz-adv-x="575" d="M380 0h-185v1456h185v-1456zM591 1625v-24h-153l-150 150l-149 -150h-153v25l244 236h116z" />
<glyph unicode="&#xcf;" horiz-adv-x="575" d="M380 0h-185v1456h185v-1456zM629 1608h-211v196h211v-196zM160 1608h-212v196h212v-196z" />
<glyph unicode="&#xd0;" horiz-adv-x="1415" d="M212 0v666h-166v149h166v641h443q290 0 460 -173t170 -457v-197q0 -286 -172 -457.5t-476 -171.5h-425zM682 666h-285v-517h240q232 0 347 130.5t115 349.5v199q0 223 -113 350.5t-331 127.5h-258v-491h285v-149z" />
<glyph unicode="&#xd1;" horiz-adv-x="1460" d="M1278 0h-185l-723 1147h-3v-1147h-185v1456h185l723 -1146h3v1146h185v-1456zM1071 1842q0 -95 -58 -158.5t-149 -63.5q-73 0 -148.5 47.5t-128.5 47.5q-44 0 -73 -32.5t-29 -80.5l-104 26q0 94 57 160.5t149 66.5q59 0 141 -48t136 -48q43 0 73 32.5t30 81.5z" />
<glyph unicode="&#xd2;" horiz-adv-x="1424" d="M1293 599q0 -268 -162.5 -444t-428.5 -176q-258 0 -415 176t-157 444v257q0 267 157 444t415 177q266 0 428.5 -177t162.5 -444v-257zM1108 858q0 201 -109 332t-297 131q-180 0 -283.5 -131t-103.5 -332v-259q0 -203 103.5 -334t283.5 -131q189 0 297.5 130.5 t108.5 334.5v259zM792 1581h-152l-253 266h226z" />
<glyph unicode="&#xd3;" horiz-adv-x="1424" d="M1293 599q0 -268 -162.5 -444t-428.5 -176q-258 0 -415 176t-157 444v257q0 267 157 444t415 177q266 0 428.5 -177t162.5 -444v-257zM1108 858q0 201 -109 332t-297 131q-180 0 -283.5 -131t-103.5 -332v-259q0 -203 103.5 -334t283.5 -131q189 0 297.5 130.5 t108.5 334.5v259zM811 1844h225l-272 -266h-141z" />
<glyph unicode="&#xd4;" horiz-adv-x="1424" d="M1293 599q0 -268 -162.5 -444t-428.5 -176q-258 0 -415 176t-157 444v257q0 267 157 444t415 177q266 0 428.5 -177t162.5 -444v-257zM1108 858q0 201 -109 332t-297 131q-180 0 -283.5 -131t-103.5 -332v-259q0 -203 103.5 -334t283.5 -131q189 0 297.5 130.5 t108.5 334.5v259zM1014 1646v-24h-153l-150 150l-149 -150h-153v25l244 236h116z" />
<glyph unicode="&#xd5;" horiz-adv-x="1424" d="M1293 599q0 -268 -162.5 -444t-428.5 -176q-258 0 -415 176t-157 444v257q0 267 157 444t415 177q266 0 428.5 -177t162.5 -444v-257zM1108 858q0 201 -109 332t-297 131q-180 0 -283.5 -131t-103.5 -332v-259q0 -203 103.5 -334t283.5 -131q189 0 297.5 130.5 t108.5 334.5v259zM1054 1863q0 -95 -58 -158.5t-149 -63.5q-73 0 -148.5 47.5t-128.5 47.5q-44 0 -73 -32.5t-29 -80.5l-104 26q0 94 57 160.5t149 66.5q59 0 141 -48t136 -48q43 0 73 32.5t30 81.5z" />
<glyph unicode="&#xd6;" horiz-adv-x="1424" d="M1293 599q0 -268 -162.5 -444t-428.5 -176q-258 0 -415 176t-157 444v257q0 267 157 444t415 177q266 0 428.5 -177t162.5 -444v-257zM1108 858q0 201 -109 332t-297 131q-180 0 -283.5 -131t-103.5 -332v-259q0 -203 103.5 -334t283.5 -131q189 0 297.5 130.5 t108.5 334.5v259zM1052 1629h-211v196h211v-196zM583 1629h-212v196h212v-196z" />
<glyph unicode="&#xd7;" horiz-adv-x="1092" d="M89 348l330 337l-328 335l119 122l329 -335l329 335l119 -122l-329 -335l331 -337l-119 -122l-331 337l-331 -337z" />
<glyph unicode="&#xd8;" horiz-adv-x="1394" d="M1278 599q0 -268 -162.5 -444t-428.5 -176q-86 0 -160.5 21t-140.5 63l-93 -156h-143l140 234q-86 87 -130.5 203t-44.5 255v257q0 267 157 444t415 177q98 0 181.5 -26.5t156.5 -76.5l84 142h143l-134 -224q78 -87 119 -197t41 -239v-257zM300 599q0 -88 20.5 -164 t62.5 -137l556 933q-52 44 -114.5 67t-137.5 23q-180 0 -283.5 -131t-103.5 -332v-259zM1093 858q0 77 -18 145.5t-52 127.5l-553 -927q46 -35 99.5 -52.5t117.5 -17.5q189 0 297.5 130.5t108.5 334.5v259z" />
<glyph unicode="&#xd9;" horiz-adv-x="1384" d="M1239 1456v-987q0 -242 -151 -366t-402 -124q-244 0 -390 124t-146 366v987h186v-987q0 -171 94.5 -256t255.5 -85q169 0 268.5 85t99.5 256v987h185zM778 1560h-152l-253 266h226z" />
<glyph unicode="&#xda;" horiz-adv-x="1384" d="M1239 1456v-987q0 -242 -151 -366t-402 -124q-244 0 -390 124t-146 366v987h186v-987q0 -171 94.5 -256t255.5 -85q169 0 268.5 85t99.5 256v987h185zM797 1823h225l-272 -266h-141z" />
<glyph unicode="&#xdb;" horiz-adv-x="1384" d="M1239 1456v-987q0 -242 -151 -366t-402 -124q-244 0 -390 124t-146 366v987h186v-987q0 -171 94.5 -256t255.5 -85q169 0 268.5 85t99.5 256v987h185zM1000 1625v-24h-153l-150 150l-149 -150h-153v25l244 236h116z" />
<glyph unicode="&#xdc;" horiz-adv-x="1384" d="M1239 1456v-987q0 -242 -151 -366t-402 -124q-244 0 -390 124t-146 366v987h186v-987q0 -171 94.5 -256t255.5 -85q169 0 268.5 85t99.5 256v987h185zM1038 1608h-211v196h211v-196zM569 1608h-212v196h212v-196z" />
<glyph unicode="&#xdd;" horiz-adv-x="1266" d="M632 702l391 754h212l-514 -942v-514h-184v527l-507 929h212zM733 1821h225l-272 -266h-141z" />
<glyph unicode="&#xde;" horiz-adv-x="1210" d="M352 1456v-294h277q234 0 361 -116t127 -308q0 -193 -127 -308.5t-361 -115.5h-277v-314h-186v1456h186zM352 1013v-550h277q153 0 227.5 78t74.5 195q0 118 -74.5 197.5t-227.5 79.5h-277z" />
<glyph unicode="&#xdf;" horiz-adv-x="1218" d="M324 0h-185v1082q0 225 113 347t299 122q161 0 259 -84t98 -252q0 -119 -64 -227t-64 -168q0 -84 175 -224t175 -282q0 -169 -103.5 -251.5t-281.5 -82.5q-83 0 -171.5 21.5t-128.5 50.5l43 153q42 -29 107.5 -52.5t129.5 -23.5q114 0 167 47t53 129q0 87 -175 228 t-175 289q0 83 69 191.5t69 186.5q0 95 -51.5 148.5t-120.5 53.5q-110 0 -173.5 -82t-63.5 -238v-1082z" />
<glyph unicode="&#xe0;" horiz-adv-x="1122" d="M813 0q-10 51 -15 84t-7 69q-58 -76 -144 -124.5t-189 -48.5q-171 0 -257.5 84.5t-86.5 237.5q0 158 124 244t344 86h209v110q0 99 -61 154.5t-174 55.5q-105 0 -169.5 -49.5t-64.5 -120.5h-185q0 125 119 222.5t310 97.5q187 0 298.5 -92t111.5 -270v-522q0 -58 6 -111 t22 -107h-191zM485 139q104 0 186.5 48t119.5 118v199h-215q-129 0 -203 -60.5t-74 -145.5q0 -75 46.5 -117t139.5 -42zM634 1238h-152l-253 266h226z" />
<glyph unicode="&#xe1;" horiz-adv-x="1122" d="M813 0q-10 51 -15 84t-7 69q-58 -76 -144 -124.5t-189 -48.5q-171 0 -257.5 84.5t-86.5 237.5q0 158 124 244t344 86h209v110q0 99 -61 154.5t-174 55.5q-105 0 -169.5 -49.5t-64.5 -120.5h-185q0 125 119 222.5t310 97.5q187 0 298.5 -92t111.5 -270v-522q0 -58 6 -111 t22 -107h-191zM485 139q104 0 186.5 48t119.5 118v199h-215q-129 0 -203 -60.5t-74 -145.5q0 -75 46.5 -117t139.5 -42zM653 1501h225l-272 -266h-141z" />
<glyph unicode="&#xe2;" horiz-adv-x="1122" d="M813 0q-10 51 -15 84t-7 69q-58 -76 -144 -124.5t-189 -48.5q-171 0 -257.5 84.5t-86.5 237.5q0 158 124 244t344 86h209v110q0 99 -61 154.5t-174 55.5q-105 0 -169.5 -49.5t-64.5 -120.5h-185q0 125 119 222.5t310 97.5q187 0 298.5 -92t111.5 -270v-522q0 -58 6 -111 t22 -107h-191zM485 139q104 0 186.5 48t119.5 118v199h-215q-129 0 -203 -60.5t-74 -145.5q0 -75 46.5 -117t139.5 -42zM856 1303v-24h-153l-150 150l-149 -150h-153v25l244 236h116z" />
<glyph unicode="&#xe3;" horiz-adv-x="1122" d="M813 0q-10 51 -15 84t-7 69q-58 -76 -144 -124.5t-189 -48.5q-171 0 -257.5 84.5t-86.5 237.5q0 158 124 244t344 86h209v110q0 99 -61 154.5t-174 55.5q-105 0 -169.5 -49.5t-64.5 -120.5h-185q0 125 119 222.5t310 97.5q187 0 298.5 -92t111.5 -270v-522q0 -58 6 -111 t22 -107h-191zM485 139q104 0 186.5 48t119.5 118v199h-215q-129 0 -203 -60.5t-74 -145.5q0 -75 46.5 -117t139.5 -42zM896 1520q0 -95 -58 -158.5t-149 -63.5q-73 0 -148.5 47.5t-128.5 47.5q-44 0 -73 -32.5t-29 -80.5l-104 26q0 94 57 160.5t149 66.5q59 0 141 -48 t136 -48q43 0 73 32.5t30 81.5z" />
<glyph unicode="&#xe4;" horiz-adv-x="1122" d="M813 0q-10 51 -15 84t-7 69q-58 -76 -144 -124.5t-189 -48.5q-171 0 -257.5 84.5t-86.5 237.5q0 158 124 244t344 86h209v110q0 99 -61 154.5t-174 55.5q-105 0 -169.5 -49.5t-64.5 -120.5h-185q0 125 119 222.5t310 97.5q187 0 298.5 -92t111.5 -270v-522q0 -58 6 -111 t22 -107h-191zM485 139q104 0 186.5 48t119.5 118v199h-215q-129 0 -203 -60.5t-74 -145.5q0 -75 46.5 -117t139.5 -42zM894 1286h-211v196h211v-196zM425 1286h-212v196h212v-196z" />
<glyph unicode="&#xe5;" horiz-adv-x="1122" d="M813 0q-10 51 -15 84t-7 69q-58 -76 -144 -124.5t-189 -48.5q-171 0 -257.5 84.5t-86.5 237.5q0 158 124 244t344 86h209v110q0 99 -61 154.5t-174 55.5q-105 0 -169.5 -49.5t-64.5 -120.5h-185q0 125 119 222.5t310 97.5q187 0 298.5 -92t111.5 -270v-522q0 -58 6 -111 t22 -107h-191zM485 139q104 0 186.5 48t119.5 118v199h-215q-129 0 -203 -60.5t-74 -145.5q0 -75 46.5 -117t139.5 -42zM350 1412q0 84 58 139t144 55q84 0 141.5 -55t57.5 -139q0 -86 -57 -138.5t-142 -52.5q-87 0 -144.5 52.5t-57.5 138.5zM449 1412q0 -44 30 -73.5 t73 -29.5t71.5 29t28.5 74t-28.5 75t-71.5 30t-73 -30t-30 -75z" />
<glyph unicode="&#xe6;" horiz-adv-x="1729" d="M1262 -21q-139 0 -240 48.5t-168 141.5q-57 -82 -166 -136t-272 -54q-173 0 -264 85.5t-91 238.5q0 162 112.5 247t335.5 85h234v85q0 112 -52.5 172t-155.5 60q-111 0 -173.5 -55t-62.5 -137l-184 18q0 144 113 234t307 90q117 0 203 -41t136 -123q65 80 152 122t192 42 q216 0 329 -127.5t113 -358.5v-117h-722q4 -170 82.5 -270.5t241.5 -100.5q106 0 173 28t143 79l64 -133q-57 -47 -147.5 -85t-232.5 -38zM452 128q80 0 163.5 44t127.5 102v223h-232q-128 0 -196.5 -56.5t-68.5 -141.5q0 -78 51.5 -124.5t154.5 -46.5zM1218 952 q-119 0 -189.5 -85.5t-86.5 -226.5h533v31q0 126 -61.5 203.5t-195.5 77.5z" />
<glyph unicode="&#xe7;" horiz-adv-x="1083" d="M579 129q103 0 178.5 60t76.5 152h176q-1 -148 -128.5 -254.5t-302.5 -106.5q-238 0 -360 151.5t-122 388.5v42q0 236 122 388t360 152q191 0 310.5 -110t120.5 -282h-176q-1 104 -72 173t-183 69q-161 0 -228.5 -111.5t-67.5 -278.5v-42q0 -171 67 -281t229 -110z M610 -9l-12 -53q67 -11 110 -51t43 -122q0 -97 -77.5 -153t-225.5 -56l-7 106q74 0 120 24.5t46 75.5q0 50 -36 69t-126 26l32 134h133z" />
<glyph unicode="&#xe8;" horiz-adv-x="1079" d="M590 -20q-228 0 -360 147.5t-132 391.5v45q0 236 135.5 387t326.5 151q220 0 330.5 -129t110.5 -353v-121h-717q4 -166 82.5 -268t223.5 -102q101 0 174.5 28t132.5 79l73 -123q-59 -58 -151.5 -95.5t-228.5 -37.5zM560 952q-105 0 -177.5 -84.5t-92.5 -219.5h526v26 q0 121 -64 199.5t-192 78.5zM639 1239h-152l-253 266h226z" />
<glyph unicode="&#xe9;" horiz-adv-x="1079" d="M590 -20q-228 0 -360 147.5t-132 391.5v45q0 236 135.5 387t326.5 151q220 0 330.5 -129t110.5 -353v-121h-717q4 -166 82.5 -268t223.5 -102q101 0 174.5 28t132.5 79l73 -123q-59 -58 -151.5 -95.5t-228.5 -37.5zM560 952q-105 0 -177.5 -84.5t-92.5 -219.5h526v26 q0 121 -64 199.5t-192 78.5zM658 1502h225l-272 -266h-141z" />
<glyph unicode="&#xea;" horiz-adv-x="1079" d="M590 -20q-228 0 -360 147.5t-132 391.5v45q0 236 135.5 387t326.5 151q220 0 330.5 -129t110.5 -353v-121h-717q4 -166 82.5 -268t223.5 -102q101 0 174.5 28t132.5 79l73 -123q-59 -58 -151.5 -95.5t-228.5 -37.5zM560 952q-105 0 -177.5 -84.5t-92.5 -219.5h526v26 q0 121 -64 199.5t-192 78.5zM861 1304v-24h-153l-150 150l-149 -150h-153v25l244 236h116z" />
<glyph unicode="&#xeb;" horiz-adv-x="1079" d="M590 -20q-228 0 -360 147.5t-132 391.5v45q0 236 135.5 387t326.5 151q220 0 330.5 -129t110.5 -353v-121h-717q4 -166 82.5 -268t223.5 -102q101 0 174.5 28t132.5 79l73 -123q-59 -58 -151.5 -95.5t-228.5 -37.5zM560 952q-105 0 -177.5 -84.5t-92.5 -219.5h526v26 q0 121 -64 199.5t-192 78.5zM899 1287h-211v196h211v-196zM430 1287h-212v196h212v-196z" />
<glyph unicode="&#xec;" horiz-adv-x="506" d="M341 0h-186v1082h186v-1082zM330 1217h-152l-253 266h226z" />
<glyph unicode="&#xed;" horiz-adv-x="506" d="M341 0h-186v1082h186v-1082zM348 1480h225l-272 -266h-141z" />
<glyph unicode="&#xee;" horiz-adv-x="506" d="M341 0h-186v1082h186v-1082zM552 1282v-24h-153l-150 150l-149 -150h-153v25l244 236h116z" />
<glyph unicode="&#xef;" horiz-adv-x="506" d="M341 0h-186v1082h186v-1082zM590 1265h-211v196h211v-196zM121 1265h-212v196h212v-196z" />
<glyph unicode="&#xf0;" horiz-adv-x="1200" d="M851 1287q106 -124 162 -286.5t56 -368.5v-97q0 -250 -140.5 -403t-358.5 -153q-221 0 -357.5 137.5t-136.5 348.5q0 234 135 373t353 139q87 0 162.5 -32t132.5 -87l3 1q-23 106 -66 189t-105 148l-277 -158l-73 99l250 143q-38 24 -77.5 43.5t-82.5 35.5l57 158 q76 -23 143 -57.5t128 -83.5l236 135l73 -99zM884 634q0 8 -0.5 25t-0.5 26q-36 61 -116 101.5t-203 40.5q-140 0 -221.5 -103.5t-81.5 -258.5q0 -136 83.5 -236.5t229.5 -100.5q140 0 225 113.5t85 293.5v99z" />
<glyph unicode="&#xf1;" d="M312 1082l13 -162l3 -1q53 87 134.5 135t188.5 48q177 0 271 -100t94 -319v-683h-186v679q0 149 -56.5 209t-177.5 60q-91 0 -157.5 -43t-107.5 -120v-785h-186v1082h167zM921 1520q0 -95 -58 -158.5t-149 -63.5q-73 0 -148.5 47.5t-128.5 47.5q-44 0 -73 -32.5 t-29 -80.5l-104 26q0 94 57 160.5t149 66.5q59 0 141 -48t136 -48q43 0 73 32.5t30 81.5z" />
<glyph unicode="&#xf2;" d="M96 552q0 245 128 397.5t354 152.5q228 0 356.5 -152.5t128.5 -397.5v-24q0 -246 -128 -397t-355 -151q-228 0 -356 151t-128 397v24zM282 528q0 -177 74 -288t224 -111q148 0 223 111.5t75 287.5v24q0 174 -75.5 287t-224.5 113q-148 0 -222 -113t-74 -287v-24z M663 1238h-152l-253 266h226z" />
<glyph unicode="&#xf3;" d="M96 552q0 245 128 397.5t354 152.5q228 0 356.5 -152.5t128.5 -397.5v-24q0 -246 -128 -397t-355 -151q-228 0 -356 151t-128 397v24zM282 528q0 -177 74 -288t224 -111q148 0 223 111.5t75 287.5v24q0 174 -75.5 287t-224.5 113q-148 0 -222 -113t-74 -287v-24z M682 1501h225l-272 -266h-141z" />
<glyph unicode="&#xf4;" d="M96 552q0 245 128 397.5t354 152.5q228 0 356.5 -152.5t128.5 -397.5v-24q0 -246 -128 -397t-355 -151q-228 0 -356 151t-128 397v24zM282 528q0 -177 74 -288t224 -111q148 0 223 111.5t75 287.5v24q0 174 -75.5 287t-224.5 113q-148 0 -222 -113t-74 -287v-24z M885 1303v-24h-153l-150 150l-149 -150h-153v25l244 236h116z" />
<glyph unicode="&#xf5;" d="M96 552q0 245 128 397.5t354 152.5q228 0 356.5 -152.5t128.5 -397.5v-24q0 -246 -128 -397t-355 -151q-228 0 -356 151t-128 397v24zM282 528q0 -177 74 -288t224 -111q148 0 223 111.5t75 287.5v24q0 174 -75.5 287t-224.5 113q-148 0 -222 -113t-74 -287v-24z M925 1520q0 -95 -58 -158.5t-149 -63.5q-73 0 -148.5 47.5t-128.5 47.5q-44 0 -73 -32.5t-29 -80.5l-104 26q0 94 57 160.5t149 66.5q59 0 141 -48t136 -48q43 0 73 32.5t30 81.5z" />
<glyph unicode="&#xf6;" d="M96 552q0 245 128 397.5t354 152.5q228 0 356.5 -152.5t128.5 -397.5v-24q0 -246 -128 -397t-355 -151q-228 0 -356 151t-128 397v24zM282 528q0 -177 74 -288t224 -111q148 0 223 111.5t75 287.5v24q0 174 -75.5 287t-224.5 113q-148 0 -222 -113t-74 -287v-24z M923 1286h-211v196h211v-196zM454 1286h-212v196h212v-196z" />
<glyph unicode="&#xf7;" horiz-adv-x="1169" d="M1069 602h-998v180h998v-180zM666 1000h-189v199h189v-199zM666 183h-189v199h189v-199z" />
<glyph unicode="&#xf8;" horiz-adv-x="1161" d="M96 552q0 245 128 397.5t354 152.5q58 0 109 -11.5t99 -32.5l74 151h123l-104 -210q90 -75 137 -189t47 -258v-24q0 -246 -128 -397t-355 -151q-53 0 -98.5 8.5t-88.5 25.5l-73 -149h-123l100 203q-100 73 -150.5 190t-50.5 270v24zM282 528q0 -96 22 -173.5t69 -132.5 l343 695q-31 17 -65 26t-73 9q-148 0 -222 -113t-74 -287v-24zM878 552q0 86 -19.5 158.5t-58.5 128.5l-338 -686q26 -13 54.5 -18.5t63.5 -5.5q148 0 223 111.5t75 287.5v24z" />
<glyph unicode="&#xf9;" d="M835 158l-3 1q-50 -87 -129 -133t-188 -46q-180 0 -277 110.5t-97 354.5v637h186v-639q0 -178 52 -243.5t165 -65.5q112 0 180.5 43.5t104.5 126.5v778h185v-1082h-166zM661 1217h-152l-253 266h226z" />
<glyph unicode="&#xfa;" d="M835 158l-3 1q-50 -87 -129 -133t-188 -46q-180 0 -277 110.5t-97 354.5v637h186v-639q0 -178 52 -243.5t165 -65.5q112 0 180.5 43.5t104.5 126.5v778h185v-1082h-166zM680 1480h225l-272 -266h-141z" />
<glyph unicode="&#xfb;" d="M835 158l-3 1q-50 -87 -129 -133t-188 -46q-180 0 -277 110.5t-97 354.5v637h186v-639q0 -178 52 -243.5t165 -65.5q112 0 180.5 43.5t104.5 126.5v778h185v-1082h-166zM883 1282v-24h-153l-150 150l-149 -150h-153v25l244 236h116z" />
<glyph unicode="&#xfc;" d="M835 158l-3 1q-50 -87 -129 -133t-188 -46q-180 0 -277 110.5t-97 354.5v637h186v-639q0 -178 52 -243.5t165 -65.5q112 0 180.5 43.5t104.5 126.5v778h185v-1082h-166zM921 1265h-211v196h211v-196zM452 1265h-212v196h212v-196z" />
<glyph unicode="&#xfd;" horiz-adv-x="1026" d="M473 390l38 -144h3l275 836h207l-458 -1249q-41 -111 -115 -190.5t-206 -79.5q-24 0 -59 5.5t-55 10.5l19 149q-3 1 36 -2t50 -3q67 0 98 37.5t77 144.5l49 117l-405 1060h207zM614 1480h225l-272 -266h-141z" />
<glyph unicode="&#xfe;" horiz-adv-x="1180" d="M1069 501q0 -240 -109.5 -380.5t-310.5 -140.5q-103 0 -178 33.5t-128 100.5l-3 -1v-529h-186v1976h185v-600l3 -1q52 70 127 106.5t177 36.5q204 0 313.5 -156.5t109.5 -423.5v-21zM883 522q0 191 -72 308.5t-219 117.5q-91 0 -152 -40t-100 -110v-522 q40 -71 100.5 -109t153.5 -38q146 0 217.5 101.5t71.5 270.5v21z" />
<glyph unicode="&#xff;" horiz-adv-x="1026" d="M473 390l38 -144h3l275 836h207l-458 -1249q-41 -111 -115 -190.5t-206 -79.5q-24 0 -59 5.5t-55 10.5l19 149q-3 1 36 -2t50 -3q67 0 98 37.5t77 144.5l49 117l-405 1060h207zM855 1265h-211v196h211v-196zM386 1265h-212v196h212v-196z" />
<glyph unicode="&#x131;" horiz-adv-x="506" d="M341 0h-186v1082h186v-1082z" />
<glyph unicode="&#x152;" horiz-adv-x="1953" d="M1848 0h-894q-94 -10 -158.5 -15.5t-133.5 -5.5q-253 0 -405 163t-152 434v304q0 270 151 433.5t404 163.5q71 0 142 -6t152 -15h884v-150h-764v-478h672v-150h-672v-529h774v-149zM662 128q56 0 112.5 4t114.5 13v1165q-58 8 -114.5 13t-114.5 5q-177 0 -273.5 -113.5 t-96.5 -332.5v-306q0 -220 97.5 -334t274.5 -114z" />
<glyph unicode="&#x153;" horiz-adv-x="1860" d="M97 552q0 245 127.5 397.5t354.5 152.5q135 0 235 -56.5t164 -160.5q66 103 163 160t210 57q220 0 330.5 -129.5t110.5 -352.5v-121h-718q4 -166 82.5 -268.5t222.5 -102.5q103 0 177.5 28.5t130.5 79.5l74 -123q-60 -59 -153 -96.5t-229 -37.5q-135 0 -237 54.5 t-166 157.5q-65 -103 -163.5 -157.5t-231.5 -54.5q-228 0 -356 151.5t-128 397.5v24zM282 528q0 -177 74.5 -288.5t224.5 -111.5q148 0 222.5 111.5t74.5 288.5v24q0 175 -75 287.5t-224 112.5t-223 -113t-74 -287v-24zM1351 952q-106 0 -178.5 -84.5t-92.5 -219.5h526v26 q0 121 -64 199.5t-191 78.5z" />
<glyph unicode="&#x178;" horiz-adv-x="1266" d="M632 702l391 754h212l-514 -942v-514h-184v527l-507 929h212zM974 1606h-211v196h211v-196zM505 1606h-212v196h212v-196z" />
<glyph unicode="&#x2c6;" horiz-adv-x="964" d="M774 1276v-24h-153l-150 150l-149 -150h-153v25l244 236h116z" />
<glyph unicode="&#x2da;" horiz-adv-x="693" d="M139 1310q0 84 58 139t144 55q84 0 141.5 -55t57.5 -139q0 -86 -57 -138.5t-142 -52.5q-87 0 -144.5 52.5t-57.5 138.5zM238 1310q0 -44 30 -73.5t73 -29.5t71.5 29t28.5 74t-28.5 75t-71.5 30t-73 -30t-30 -75z" />
<glyph unicode="&#x2dc;" horiz-adv-x="966" d="M820 1490q0 -95 -58 -158.5t-149 -63.5q-73 0 -148.5 47.5t-128.5 47.5q-44 0 -73 -32.5t-29 -80.5l-104 26q0 94 57 160.5t149 66.5q59 0 141 -48t136 -48q43 0 73 32.5t30 81.5z" />
<glyph unicode="&#x2000;" horiz-adv-x="964" />
<glyph unicode="&#x2001;" horiz-adv-x="1928" />
<glyph unicode="&#x2002;" horiz-adv-x="964" />
<glyph unicode="&#x2003;" horiz-adv-x="1928" />
<glyph unicode="&#x2004;" horiz-adv-x="642" />
<glyph unicode="&#x2005;" horiz-adv-x="482" />
<glyph unicode="&#x2006;" horiz-adv-x="321" />
<glyph unicode="&#x2007;" horiz-adv-x="321" />
<glyph unicode="&#x2008;" horiz-adv-x="241" />
<glyph unicode="&#x2009;" horiz-adv-x="385" />
<glyph unicode="&#x200a;" horiz-adv-x="107" />
<glyph unicode="&#x2010;" horiz-adv-x="565" d="M525 545h-488v149h488v-149z" />
<glyph unicode="&#x2011;" horiz-adv-x="565" d="M525 545h-488v149h488v-149z" />
<glyph unicode="&#x2012;" horiz-adv-x="565" d="M525 545h-488v149h488v-149z" />
<glyph unicode="&#x2013;" horiz-adv-x="1416" d="M1264.89 652h-1085.49v149h1085.49v-149z" />
<glyph unicode="&#x2014;" horiz-adv-x="1661" d="M1523.78 652h-1335.98v149h1335.98v-149z" />
<glyph unicode="&#x2018;" horiz-adv-x="409" d="M96 1201q0 100 46 203.5t128 174.5l106 -71q-50 -74 -72.5 -146t-22.5 -158v-178h-185v175z" />
<glyph unicode="&#x2019;" horiz-adv-x="409" d="M327 1377q0 -101 -46 -204.5t-128 -173.5l-105 72q48 72 71 144.5t23 158.5v186h185v-183z" />
<glyph unicode="&#x201a;" horiz-adv-x="407" d="M315 79q0 -100 -46 -203.5t-128 -173.5l-105 71q48 73 71 145.5t23 157.5v174h185v-171z" />
<glyph unicode="&#x201c;" horiz-adv-x="724" d="M96 1201q0 100 46 203.5t128 174.5l106 -71q-50 -74 -72.5 -146t-22.5 -158v-178h-185v175zM410 1201q0 100 46 203.5t128 174.5l106 -71q-50 -74 -72.5 -146t-22.5 -158v-178h-185v175z" />
<glyph unicode="&#x201d;" horiz-adv-x="731" d="M339 1377q0 -101 -46 -204.5t-128 -173.5l-105 72q48 72 71 144.5t23 158.5v186h185v-183zM646 1377q0 -101 -46 -204.5t-128 -173.5l-105 72q48 72 71 144.5t23 158.5v186h185v-183z" />
<glyph unicode="&#x201e;" horiz-adv-x="705" d="M315 79q0 -100 -46 -203.5t-128 -173.5l-105 71q48 73 71 145.5t23 157.5v174h185v-171zM612 79q0 -100 -46.5 -203.5t-128.5 -173.5l-105 71q48 73 71 145.5t23 157.5v174h186v-171z" />
<glyph unicode="&#x2022;" horiz-adv-x="690" d="M138 792q0 89 54.5 143.5t148.5 54.5q96 0 150.5 -54.5t54.5 -143.5v-61q0 -89 -54.5 -142t-149.5 -53t-149.5 53t-54.5 142v61z" />
<glyph unicode="&#x2026;" horiz-adv-x="1370" d="M354 0h-188v197h188v-197zM791 0h-188v197h188v-197zM1206 0h-188v197h188v-197z" />
<glyph unicode="&#x202f;" horiz-adv-x="385" />
<glyph unicode="&#x2039;" horiz-adv-x="614" d="M286 551l258 -397h-141l-295 388v19l295 387h141z" />
<glyph unicode="&#x203a;" horiz-adv-x="614" d="M231 948l295 -388v-19l-295 -388h-142l258 397l-258 398h142z" />
<glyph unicode="&#x2044;" horiz-adv-x="931" d="M163 111l-104 65l711 1138l104 -65z" />
<glyph unicode="&#x205f;" horiz-adv-x="482" />
<glyph unicode="&#x20ac;" horiz-adv-x="1086" d="M914 514h-500q0 -180 87 -283t240 -103q59 0 113.5 8.5t107.5 25.5l18 -152q-58 -15 -117.5 -23t-121.5 -8q-234 0 -373 142.5t-139 392.5h-150v120h150v169h-150v122h150v17q0 249 138 392t372 143q60 0 116.5 -8t124.5 -23l-18 -154q-55 16 -110 25.5t-113 9.5 q-153 0 -239 -102t-86 -281v-19h500v-122h-500v-169h500v-120z" />
<glyph unicode="&#x2122;" horiz-adv-x="1281" d="M1026 1276h-3l-155 -357h-51l-160 370h-3v-370h-90v537h113l165 -400l167 400h107v-537h-90v357zM486 1375h-146v-456h-91v456h-147v81h384v-81z" />
<glyph unicode="&#x2212;" horiz-adv-x="1170" d="M1003 652h-835v149h835v-149z" />
<glyph unicode="&#x25fc;" horiz-adv-x="1080" d="M0 1080h1080v-1080h-1080v1080z" />
<glyph unicode="&#xfb02;" horiz-adv-x="1210" d="M236 0v941h-170v141h170v139q0 175 87.5 267.5t250.5 92.5q34 0 67.5 -5.5t76.5 -15.5l-23 -145q-19 5 -44 8t-54 3q-90 0 -132.5 -52t-42.5 -153v-139h230v-141h-230v-941h-186zM1048 0h-185v1560h185v-1560z" />
<glyph unicode="&#xfb03;" horiz-adv-x="1836" d="M236 0v941h-170v141h170v139q0 175 87.5 267.5t250.5 92.5q34 0 67.5 -5.5t76.5 -15.5l-23 -145q-19 5 -44 8t-54 3q-90 0 -132.5 -52t-42.5 -153v-139h230v-141h-230v-941h-186zM904 0v941h-171v141h171v119q0 185 103 282.5t293 97.5q68 0 133 -15.5t150 -45.5 l-31 -154q-55 22 -113.5 36.5t-124.5 14.5q-120 0 -172 -52t-52 -164v-119h221v-141h-221v-941h-186zM1675 0h-186v1082h186v-1082z" />
<glyph unicode="&#xfb04;" horiz-adv-x="1912" d="M236 0v941h-170v141h170v139q0 175 87.5 267.5t250.5 92.5q34 0 67.5 -5.5t76.5 -15.5l-23 -145q-19 5 -44 8t-54 3q-90 0 -132.5 -52t-42.5 -153v-139h230v-141h-230v-941h-186zM938 0v941h-170v141h170v139q0 175 87.5 267.5t250.5 92.5q34 0 67.5 -5.5t76.5 -15.5 l-23 -145q-19 5 -44 8t-54 3q-90 0 -132.5 -52t-42.5 -153v-139h230v-141h-230v-941h-186zM1750 0h-185v1560h185v-1560z" />
<glyph horiz-adv-x="909" d="M674 280h130v-126h-130v-154h-161v154h-419l-7 98l422 549h165v-521zM261 280h252v326l-3 1l-18 -31z" />
<glyph horiz-adv-x="551" d="M388 0h-164v660l-130 -1v130l294 23v-812z" />
<glyph horiz-adv-x="853" d="M710 0h-588v126l303 264q72 62 94 99t22 81q0 52 -29 83.5t-92 31.5q-72 0 -109 -32.5t-37 -85.5h-161q0 105 82 175t225 70q136 0 210 -62.5t74 -180.5q0 -80 -43.5 -134.5t-160.5 -162.5l-168 -146h378v-126z" />
<glyph horiz-adv-x="872" d="M423 469q72 0 104.5 29t32.5 83q0 46 -36.5 75t-110.5 29q-59 0 -96 -25t-37 -67h-162q0 101 83.5 160t211.5 59q146 0 227.5 -58.5t81.5 -170.5q0 -56 -34.5 -101t-97.5 -71q72 -24 109 -70.5t37 -116.5q0 -113 -88 -174t-235 -61q-128 0 -218 58t-90 175h163 q0 -49 38.5 -78t106.5 -29q77 0 119 29.5t42 80.5q0 65 -37 93.5t-114 28.5h-131v122h131z" />
</font>
</defs>
</svg>
